<?xml version="1.0" encoding="utf-8"?>
<!-- Generator: Adobe Illustrator 16.0.0, SVG Export Plug-In . SVG Version: 6.00 Build 0)  -->
<!DOCTYPE svg PUBLIC "-//W3C//DTD SVG 1.1//EN" "http://www.w3.org/Graphics/SVG/1.1/DTD/svg11.dtd">
<svg version="1.1" id="Layer_1" xmlns="http://www.w3.org/2000/svg" xmlns:xlink="http://www.w3.org/1999/xlink" x="0px" y="0px"
	 width="595.28px" height="841.89px" viewBox="0 0 595.28 841.89" enable-background="new 0 0 595.28 841.89" xml:space="preserve">
<g>
	<ellipse fill="#FFD300" stroke="#005B80" stroke-width="3" stroke-miterlimit="10" cx="286" cy="420" rx="254" ry="170"/>
	
		<ellipse fill="#FFD300" stroke="#005B80" stroke-width="3" stroke-miterlimit="10" cx="284.188" cy="422" rx="199.813" ry="116.25"/>
	<ellipse fill="none" cx="286" cy="463.5" rx="199.813" ry="116.25"/>
	<text transform="matrix(0.9227 0.3856 -0.3856 0.9227 162.8154 555.1641)"><tspan x="0" y="0" fill="#00518C" font-family="'UTM-Swiss-721-Black-Condensed'" font-size="30">T</tspan><tspan x="17.908" y="-0.093" fill="#00518C" font-family="'UTM-Swiss-721-Black-Condensed'" font-size="30" rotate="-4.399">P</tspan><tspan x="37.929" y="-1.853" fill="#00518C" font-family="'UTM-Swiss-721-Black-Condensed'" font-size="30" rotate="-7.66">.</tspan><tspan x="48.628" y="-3.345" fill="#00518C" font-family="'UTM-Swiss-721-Black-Condensed'" font-size="30" rotate="-9.788"> </tspan><tspan x="59.478" y="-5.163" fill="#00518C" font-family="'UTM-Swiss-721-Black-Condensed'" font-size="30" rotate="-12.818">H</tspan><tspan x="80.345" y="-10.028" fill="#00518C" font-family="'UTM-Swiss-721-Black-Condensed'" font-size="30" rotate="-16.584">Ồ</tspan><tspan x="100.188" y="-16.133" fill="#00518C" font-family="'UTM-Swiss-721-Black-Condensed'" font-size="30" rotate="-19.283"> </tspan><tspan x="110.479" y="-19.684" fill="#00518C" font-family="'UTM-Swiss-721-Black-Condensed'" font-size="30" rotate="-21.906">C</tspan><tspan x="129.885" y="-27.577" fill="#00518C" font-family="'UTM-Swiss-721-Black-Condensed'" font-size="30" rotate="-25.391">H</tspan><tspan x="148.957" y="-36.833" fill="#00518C" font-family="'UTM-Swiss-721-Black-Condensed'" font-size="30" rotate="-28.184">Í</tspan><tspan x="159.195" y="-42.379" fill="#00518C" font-family="'UTM-Swiss-721-Black-Condensed'" font-size="30" rotate="-30.132"> </tspan><tspan x="168.867" y="-47.815" fill="#00518C" font-family="'UTM-Swiss-721-Black-Condensed'" font-size="30" rotate="-33.574">M</tspan><tspan x="191.217" y="-63.06" fill="#00518C" font-family="'UTM-Swiss-721-Black-Condensed'" font-size="30" rotate="-37.344">I</tspan><tspan x="200.758" y="-70.281" fill="#00518C" font-family="'UTM-Swiss-721-Black-Condensed'" font-size="30" rotate="-40.747">N</tspan><tspan x="216.701" y="-84.168" fill="#00518C" font-family="'UTM-Swiss-721-Black-Condensed'" font-size="30" rotate="-45.679">H</tspan></text>
	<ellipse fill="none" cx="284.782" cy="425.334" rx="213.094" ry="133.666"/>
	
		<text transform="matrix(0.082 -0.9808 0.9965 0.0834 71.3633 425.6367)" fill="#005786" font-family="'UTM-Swiss-721-Black-Condensed'" font-size="31.0236">T</text>
	
		<text transform="matrix(0.2774 -0.9443 0.9594 0.2819 72.7026 409.5371)" fill="#005786" font-family="'UTM-Swiss-721-Black-Condensed'" font-size="31.0236">R</text>
	
		<text transform="matrix(0.4606 -0.8698 0.8837 0.468 78.248 391.2109)" fill="#005786" font-family="'UTM-Swiss-721-Black-Condensed'" font-size="31.0236">Ư</text>
	
		<text transform="matrix(0.6043 -0.7768 0.7893 0.614 87.5708 373.9756)" fill="#005786" font-family="'UTM-Swiss-721-Black-Condensed'" font-size="31.0236">Ờ</text>
	
		<text transform="matrix(0.7104 -0.6812 0.6921 0.7218 99.8057 358.5078)" fill="#005786" font-family="'UTM-Swiss-721-Black-Condensed'" font-size="31.0236">N</text>
	
		<text transform="matrix(0.7871 -0.5908 0.6003 0.7998 114.1558 344.9531)" fill="#005786" font-family="'UTM-Swiss-721-Black-Condensed'" font-size="31.0236">G</text>
	
		<text transform="matrix(0.8313 -0.5268 0.5353 0.8447 129.8691 333.4971)" fill="#005786" font-family="'UTM-Swiss-721-Black-Condensed'" font-size="31.0236"> </text>
	
		<text transform="matrix(0.8673 -0.4651 0.4726 0.8813 138.3271 328.0127)" fill="#005786" font-family="'UTM-Swiss-721-Black-Condensed'" font-size="31.0236">Đ</text>
	
		<text transform="matrix(0.9031 -0.3911 0.3974 0.9176 156.1489 318.5977)" fill="#005786" font-family="'UTM-Swiss-721-Black-Condensed'" font-size="31.0236">Ạ</text>
	
		<text transform="matrix(0.9244 -0.3377 0.3431 0.9393 173.4321 311.3027)" fill="#005786" font-family="'UTM-Swiss-721-Black-Condensed'" font-size="31.0236">I</text>
	
		<text transform="matrix(0.9371 -0.3008 0.3056 0.9522 183.9448 307.5176)" fill="#005786" font-family="'UTM-Swiss-721-Black-Condensed'" font-size="31.0236"> </text>
	
		<text transform="matrix(0.952 -0.2497 0.2537 0.9673 193.6191 304.3242)" fill="#005786" font-family="'UTM-Swiss-721-Black-Condensed'" font-size="31.0236">H</text>
	
		<text transform="matrix(0.9666 -0.1851 0.1881 0.9822 213.5303 299.1836)" fill="#005786" font-family="'UTM-Swiss-721-Black-Condensed'" font-size="31.0236">Ọ</text>
	
		<text transform="matrix(0.9764 -0.1236 0.1256 0.9921 233.354 295.4561)" fill="#005786" font-family="'UTM-Swiss-721-Black-Condensed'" font-size="31.0236">C</text>
	
		<text transform="matrix(0.981 -0.0785 0.0798 0.9968 253.4565 293.0762)" fill="#005786" font-family="'UTM-Swiss-721-Black-Condensed'" font-size="31.0236"> </text>
	
		<text transform="matrix(0.9836 -0.0345 0.0351 0.9994 263.6587 292.1963)" fill="#005786" font-family="'UTM-Swiss-721-Black-Condensed'" font-size="31.0236">N</text>
	
		<text transform="matrix(0.9839 0.022 -0.0223 0.9998 283.7114 291.5576)" fill="#005786" font-family="'UTM-Swiss-721-Black-Condensed'" font-size="31.0236">G</text>
	
		<text transform="matrix(0.981 0.0794 -0.0807 0.9967 303.2656 292.04)" fill="#005786" font-family="'UTM-Swiss-721-Black-Condensed'" font-size="31.0236">O</text>
	
		<text transform="matrix(0.9746 0.1373 -0.1395 0.9902 323.3838 293.7461)" fill="#005786" font-family="'UTM-Swiss-721-Black-Condensed'" font-size="31.0236">Ạ</text>
	
		<text transform="matrix(0.967 0.1831 -0.1861 0.9825 341.9971 296.5068)" fill="#005786" font-family="'UTM-Swiss-721-Black-Condensed'" font-size="31.0236">I</text>
	
		<text transform="matrix(0.96 0.2168 -0.2203 0.9754 352.9854 298.6318)" fill="#005786" font-family="'UTM-Swiss-721-Black-Condensed'" font-size="31.0236"> </text>
	
		<text transform="matrix(0.9476 0.2657 -0.27 0.9629 362.9473 300.8018)" fill="#005786" font-family="'UTM-Swiss-721-Black-Condensed'" font-size="31.0236">N</text>
	
		<text transform="matrix(0.9263 0.3324 -0.3378 0.9412 382.1699 306.2607)" fill="#005786" font-family="'UTM-Swiss-721-Black-Condensed'" font-size="31.0236">G</text>
	
		<text transform="matrix(0.8976 0.4036 -0.4101 0.912 400.4902 312.8877)" fill="#005786" font-family="'UTM-Swiss-721-Black-Condensed'" font-size="31.0236">Ữ</text>
	
		<text transform="matrix(0.8692 0.4616 -0.469 0.8832 418.7695 321.3486)" fill="#005786" font-family="'UTM-Swiss-721-Black-Condensed'" font-size="31.0236"> </text>
	
		<text transform="matrix(0.8417 0.51 -0.5182 0.8553 427.7305 326.1045)" fill="#005786" font-family="'UTM-Swiss-721-Black-Condensed'" font-size="31.0236">-</text>
	
		<text transform="matrix(0.8086 0.561 -0.57 0.8216 439.5313 333.3867)" fill="#005786" font-family="'UTM-Swiss-721-Black-Condensed'" font-size="31.0236"> </text>
	
		<text transform="matrix(0.7636 0.6209 -0.6309 0.7759 447.8281 339.0635)" fill="#005786" font-family="'UTM-Swiss-721-Black-Condensed'" font-size="31.0236">T</text>
	
		<text transform="matrix(0.7059 0.6858 -0.6968 0.7172 460.6748 349.7617)" fill="#005786" font-family="'UTM-Swiss-721-Black-Condensed'" font-size="31.0236">I</text>
	
		<text transform="matrix(0.6251 0.7602 -0.7724 0.6351 468.5488 357.168)" fill="#005786" font-family="'UTM-Swiss-721-Black-Condensed'" font-size="31.0236">N</text>
	
		<text transform="matrix(0.5261 0.8318 -0.8451 0.5346 480.7432 372.6035)" fill="#005786" font-family="'UTM-Swiss-721-Black-Condensed'" font-size="31.0236"> </text>
	
		<text transform="matrix(0.4012 0.8987 -0.9131 0.4076 486.2021 380.6973)" fill="#005786" font-family="'UTM-Swiss-721-Black-Condensed'" font-size="31.0236">H</text>
	
		<text transform="matrix(0.2014 0.9634 -0.9788 0.2046 494.1943 398.8789)" fill="#005786" font-family="'UTM-Swiss-721-Black-Condensed'" font-size="31.0236">Ọ</text>
	
		<text transform="matrix(-0.0254 0.9839 -0.9997 -0.0258 498.0977 417.7744)" fill="#005786" font-family="'UTM-Swiss-721-Black-Condensed'" font-size="31.0236">C</text>
	
		<text transform="matrix(-0.1845 0.9667 -0.9823 -0.1875 497.1221 437.3701)" fill="#005786" font-family="'UTM-Swiss-721-Black-Condensed'" font-size="31.0236"> </text>
	<g>
		<path fill="none" stroke="#005B80" stroke-width="3" stroke-miterlimit="10" d="M198.25,317.542c0,0,93.25,26.5,172.5,0"/>
		<path fill="none" stroke="#005B80" stroke-width="3" stroke-miterlimit="10" d="M157,334.459c0,0,113.5,57.562,256,0"/>
		<path fill="none" stroke="#005B80" stroke-width="3" stroke-miterlimit="10" d="M219.859,322.423c0,0-38.105,13.868-58.359,54.286
			"/>
		<path fill="none" stroke="#005B80" stroke-width="3" stroke-miterlimit="10" d="M243.928,326.245c0,0-22.293,20.116-30.761,50.464
			"/>
		<line fill="none" stroke="#005B80" stroke-width="3" stroke-miterlimit="10" x1="285" y1="329.268" x2="285" y2="376.709"/>
		<path fill="none" stroke="#005B80" stroke-width="3" stroke-miterlimit="10" d="M326.688,327.229c0,0,27.975,31.502,28.146,49.48"
			/>
		<path fill="none" stroke="#005B80" stroke-width="3" stroke-miterlimit="10" d="M346.351,324.045c0,0,50.443,23.534,60.149,51.33"
			/>
	</g>
	<g>
		<path fill="none" stroke="#005B80" stroke-width="3" stroke-miterlimit="10" d="M371.76,527.15c0,0-93.265-26.448-172.501,0.095"
			/>
		<path fill="none" stroke="#005B80" stroke-width="3" stroke-miterlimit="10" d="M413,510.212c0,0-113.531-57.5-256,0.139"/>
		<path fill="none" stroke="#005B80" stroke-width="3" stroke-miterlimit="10" d="M350.148,522.282c0,0,38.097-13.89,58.328-54.318"
			/>
		<path fill="none" stroke="#005B80" stroke-width="3" stroke-miterlimit="10" d="M326.076,518.473c0,0,22.283-20.129,30.734-50.48"
			/>
		
			<line fill="none" stroke="#005B80" stroke-width="3" stroke-miterlimit="10" x1="285.003" y1="515.473" x2="284.978" y2="468.031"/>
		<path fill="none" stroke="#005B80" stroke-width="3" stroke-miterlimit="10" d="M243.316,517.535c0,0-27.991-31.487-28.173-49.466
			"/>
		<path fill="none" stroke="#005B80" stroke-width="3" stroke-miterlimit="10" d="M223.656,520.729c0,0-50.457-23.507-60.179-51.298
			"/>
	</g>
	<g>
		<polyline fill="#D91F26" points="122.296,398.613 138.463,398.613 138.463,418.946 160.629,418.946 160.629,398.613 
			177.421,398.613 177.421,453.821 160.671,453.821 160.588,430.404 138.296,430.446 138.546,454.279 121.546,454.279 
			121.546,398.613 122.234,398.613 122.328,398.681 		"/>
		<path fill="#D91F26" d="M207.547,398.488h-16.979l-0.037,39.942c0,0-0.922,12.891,16.016,15.141c0.875,0.063,25.063,0,25.063,0
			s14.125-2.125,15.25-14.75c0-1,0-40.333,0-40.333h-17.297l0.151,37.875c0,0-6.417,12.646-20.292,3.833
			c-0.875-1.25-1.375-1.969-1.719-3.031C207.484,436.728,207.547,398.488,207.547,398.488z"/>
		<polyline fill="#D91F26" points="258.671,398.488 303.359,398.488 303.359,409.446 275.484,409.446 275.578,419.462 
			301.547,419.462 301.594,430.399 275.546,430.399 275.609,453.6 258.671,453.321 258.671,397.696 		"/>
		<polygon fill="#D91F26" points="329.516,398.446 311.578,398.446 311.566,454.446 356.568,454.426 356.568,442.446 
			329.531,442.431 		"/>
		<polygon fill="#D91F26" points="370.594,398.493 388.594,398.493 388.547,454.446 370.594,454.446 		"/>
		<polygon fill="#D91F26" points="401.506,398.467 457.734,398.467 457.734,409.384 438.547,409.384 438.588,454.404 
			420.422,454.404 420.547,409.529 401.506,409.446 		"/>
	</g>
	<polygon fill="#005B80" points="83.238,502.625 83.933,497.094 79.991,493.147 85.209,492.37 87.373,487.345 89.904,492.4 
		95.181,493.239 91.528,497.138 92.627,502.685 87.837,500.039 	"/>
	<polygon fill="#005B80" points="476.171,505.135 476.865,499.604 472.924,495.657 478.143,494.88 480.305,489.854 482.837,494.91 
		488.113,495.749 484.461,499.647 485.56,505.194 480.77,502.549 	"/>
</g>
</svg>
