<svg data-v-423bf9ae="" xmlns="http://www.w3.org/2000/svg" viewBox="0 0 131.66844826124247 60" class="font"><!----><!----><!----><g data-v-423bf9ae="" id="bb7a2b6e-f149-4143-8738-650c92b60173" fill="black" transform="matrix(4.858614600549815,0,0,4.858614600549815,-1.3604103017441531,7.915651564664028)"><path d="M7.43 2.34L7.43 2.34L4.93 2.34C4.84 2.34 4.77 2.41 4.77 2.49L4.77 10.50C4.77 10.58 4.84 10.65 4.93 10.65C5.01 10.65 5.08 10.58 5.08 10.50L5.08 2.67L7.43 2.67C7.52 2.67 7.59 2.59 7.59 2.49C7.59 2.41 7.52 2.34 7.43 2.34ZM0.43 0.66L0.43 0.66L7.42 0.66C7.52 0.66 7.59 0.59 7.59 0.50C7.59 0.42 7.52 0.35 7.42 0.35L0.43 0.35C0.35 0.35 0.28 0.42 0.28 0.50C0.28 0.59 0.35 0.66 0.43 0.66ZM0.43 2.67L0.43 2.67L2.77 2.67L2.77 10.50C2.77 10.58 2.84 10.65 2.94 10.65C3.02 10.65 3.09 10.58 3.09 10.50L3.09 2.49C3.09 2.41 3.02 2.34 2.94 2.34L0.43 2.34C0.35 2.34 0.28 2.41 0.28 2.49C0.28 2.59 0.35 2.67 0.43 2.67ZM11.07 6.85L11.07 6.85C11.07 7.91 11.82 8.67 12.87 8.67C13.92 8.67 14.67 7.91 14.67 6.85L14.67 0.50C14.67 0.42 14.60 0.35 14.50 0.35C14.42 0.35 14.35 0.42 14.35 0.50L14.35 6.85C14.35 7.73 13.75 8.36 12.87 8.36C12.00 8.36 11.38 7.73 11.38 6.85L11.38 0.50C11.38 0.42 11.31 0.35 11.23 0.35C11.14 0.35 11.07 0.42 11.07 0.50ZM16.37 0.50L16.37 0.50L16.37 6.96C16.37 9.06 14.81 10.40 12.87 10.40C10.84 10.40 9.37 9.00 9.37 6.96L9.37 0.50C9.37 0.42 9.30 0.35 9.21 0.35C9.11 0.35 9.04 0.42 9.04 0.50L9.04 6.96C9.04 9.17 10.67 10.72 12.87 10.72C15.01 10.72 16.69 9.24 16.69 6.96L16.69 0.50C16.69 0.42 16.62 0.35 16.53 0.35C16.44 0.35 16.37 0.42 16.37 0.50ZM11.48-0.85C11.62-1.05 11.76-1.29 12.01-1.32C12.31-1.37 12.61-1.19 12.80-1.01C13.12-0.81 13.47-0.63 13.89-0.69C14.24-0.76 14.49-1.01 14.66-1.32C14.71-1.37 14.69-1.47 14.60-1.51C14.52-1.57 14.41-1.54 14.36-1.44C14.24-1.25 14.08-1.05 13.83-0.98C13.52-0.92 13.24-1.11 13.01-1.29C12.73-1.51 12.35-1.67 11.94-1.62C11.56-1.57 11.35-1.29 11.16-1.01C11.12-0.92 11.16-0.85 11.26-0.78C11.31-0.76 11.45-0.78 11.48-0.85ZM27.38 10.50L27.38 10.50L27.38 0.50C27.38 0.28 27.05 0.28 27.05 0.50L27.05 10.50C27.05 10.71 27.38 10.71 27.38 10.50ZM19.22 10.50L19.22 10.50L19.22 0.50C19.22 0.28 18.90 0.28 18.90 0.50L18.90 10.50C18.90 10.71 19.22 10.71 19.22 10.50ZM20.75 0.59L20.75 0.59L25.09 6.82C25.17 6.96 25.40 6.87 25.40 6.72L25.40 0.50C25.40 0.28 25.06 0.28 25.06 0.50L25.06 6.20L21 0.41C20.89 0.22 20.62 0.42 20.75 0.59ZM25.55 10.40L25.55 10.40L21.21 4.17C21.10 4.05 20.90 4.12 20.90 4.27L20.90 10.50C20.90 10.71 21.24 10.71 21.24 10.50L21.24 4.79L25.27 10.60C25.41 10.77 25.66 10.58 25.55 10.40Z"></path></g><!----><!----></svg>